<svg data-v-6805eed4="" version="1.0" xmlns="http://www.w3.org/2000/svg" xmlns:xlink="http://www.w3.org/1999/xlink" width="100%" height="100%" viewBox="0 0 340.000000 250.000000" preserveAspectRatio="xMidYMid meet" color-interpolation-filters="sRGB" style="margin: auto;"> <rect data-v-6805eed4="" x="0" y="0" width="100%" height="100%" fill="#ffffff" fill-opacity="1" class="background"></rect> <!----> <g data-v-6805eed4="" fill="#333" class="icon-text-wrapper icon-svg-group iconsvg" transform="translate(70.67399597174607,106.46353721618652)"><g class="iconsvg-imagesvg" transform="translate(0,0)"><g><rect fill="#333" fill-opacity="0" stroke-width="2" x="0" y="0" width="52.8" height="37.072924126890506" class="image-rect"></rect> <svg x="0" y="0" width="52.8" height="37.072924126890506" filtersec="colorsb3171176054" class="image-svg-svg primary" style="overflow: visible;"><svg xmlns="http://www.w3.org/2000/svg" viewBox="-0.0019837021827697754 0.015816323459148407 185.19198608398438 130.0301055908203"><path d="M127.48 46.51A63.78 63.78 0 0 0 93.85 6.85 67.63 67.63 0 0 0 69.1.12a64.81 64.81 0 0 0-25.27 3.6A64.1 64.1 0 0 0 .22 63.34C-.2 84.77.13 106.2 0 127.64c0 1.91.48 2.4 2.4 2.39 20-.08 40-.14 60 0A69.63 69.63 0 0 0 96 122.2c.33-.33 1-.34 1.07-.91a4.56 4.56 0 0 0 1.79-.75 55.39 55.39 0 0 0 11.48-8.76A64.9 64.9 0 0 0 129 77.24a64.17 64.17 0 0 0-1.52-30.73z" fill="#0f54ff"></path><circle cx="121.45" cy="65.01" r="63.74" fill="#1eaaff" opacity=".4"></circle></svg></svg> <!----></g></g> <g transform="translate(59.79999923706055,6.992062568664551)"><g data-gra="path-name" fill-rule="" class="tp-name iconsvg-namesvg"><g transform="scale(0.7599999999999998)"><g><path d="M0.18 0L10.39-15.16 0.54-30.02 8.37-30.02 14.26-20.11 20.65-30.02 28.39-30.02 18.22-15.16 28.39 0 20.88 0 14.26-10.3 7.79 0 0.18 0ZM38.38 0L38.38-24.66 28.84-24.66 28.84-30.02 54.72-30.02 54.72-24.66 44.77-24.66 44.77 0 38.38 0ZM54.94-14.31L65.43-14.31 65.43-8.91 54.94-8.91 54.94-14.31ZM82.13-5.35L91.3-5.35 91.3 0 80.82 0Q77.85 0 76.27-0.32L76.27-0.32Q70.74-1.4 68.4-6.48L68.4-6.48Q66.87-9.9 66.87-14.94L66.87-14.94Q66.87-20.97 69.21-24.75L69.21-24.75Q70.92-27.49 73.78-28.75 76.63-30.02 81.13-30.02L81.13-30.02 91.3-30.02 91.3-24.66 81.85-24.66Q77.58-24.66 75.6-22.36L75.6-22.36Q73.93-20.47 73.93-15.52L73.93-15.52Q73.93-8.87 76.5-6.79L76.5-6.79Q78.3-5.35 82.13-5.35L82.13-5.35ZM108.94-30.2L108.94-30.2Q113.44-30.2 116.86-28.66L116.86-28.66Q120.87-26.82 122.49-22.5L122.49-22.5Q123.75-19.13 123.75-14.58L123.75-14.58Q123.75-9.99 122.22-6.61L122.22-6.61Q120.28-2.61 116.28-0.99L116.28-0.99Q113.31 0.18 109.44 0.18L109.44 0.18Q104.35 0.18 100.62-1.71L100.62-1.71Q97.47-3.28 95.8-6.66 94.14-10.04 94.14-14.85L94.14-14.85Q94.14-23.45 98.41-27.09L98.41-27.09Q102.01-30.15 108.94-30.2ZM108.99-25.15L108.99-25.15Q104.58-25.15 102.69-22.27L102.69-22.27Q101.16-20.02 101.16-15.03L101.16-15.03Q101.16-9.76 103.05-7.29L103.05-7.29Q104.94-4.86 109.03-4.86L109.03-4.86Q112.99-4.86 114.86-7.33 116.73-9.81 116.73-14.98L116.73-14.98Q116.73-19.71 115.2-22.18L115.2-22.18Q113.44-25.11 108.99-25.15ZM139.77-11.38L134.64-11.38 134.64 0 128.25 0 128.25-30.02 142.92-30.02Q149.22-30.02 151.69-28.39L151.69-28.39Q153.41-27.31 154.33-25.54 155.25-23.76 155.25-21.64L155.25-21.64Q155.25-17.37 153.09-15.03L153.09-15.03Q151.74-13.63 149.53-12.91L149.53-12.91Q151.29-12.29 152.19-11.59 153.09-10.89 153.81-9.54L153.81-9.54Q154.35-8.46 154.6-7.47 154.84-6.48 154.98-4.54L154.98-4.54Q155.25-1.3 155.7 0L155.7 0 148.54 0Q148.23-1.03 147.87-4.27L147.87-4.27Q147.64-6.88 146.95-8.28 146.25-9.67 144.85-10.48L144.85-10.48Q143.1-11.43 139.77-11.38L139.77-11.38ZM134.64-24.66L134.64-16.74 143.59-16.74Q145.84-16.74 146.79-17.41L146.79-17.41Q148.23-18.4 148.23-20.88L148.23-20.88Q148.23-23.63 146.07-24.39L146.07-24.39Q145.31-24.66 143.59-24.66L143.59-24.66 134.64-24.66ZM172.13-30.02L182.88-30.02 182.88-24.66 174.56-24.66Q171.31-24.66 169.83-24.21 168.34-23.76 167.35-22.45L167.35-22.45Q166.68-21.55 166.43-20.65 166.19-19.75 166-17.59L166-17.59 182.88-17.59 182.88-12.24 166-12.24Q166.36-8.37 168.3-6.86 170.23-5.35 174.87-5.35L174.87-5.35 182.88-5.35 182.88 0 174.56 0Q171.18 0 168.61-0.4L168.61-0.4Q164.56-1.08 162.18-3.96L162.18-3.96Q158.76-8.1 158.76-15.16L158.76-15.16Q158.76-22.99 163.57-27.36L163.57-27.36Q165.24-28.84 167.11-29.43 168.97-30.02 172.13-30.02L172.13-30.02Z" transform="translate(-0.18000000715255737, 30.200000762939453)"></path></g> <!----> <!----> <!----> <!----> <!----> <!----> <!----></g></g> <!----></g></g><defs v-gra="od"></defs></svg>